<?xml version="1.0"?>
<svg width="640" height="480" xmlns="http://www.w3.org/2000/svg" xmlns:svg="http://www.w3.org/2000/svg">
 <!-- Created with SVG-edit - https://github.com/SVG-Edit/svgedit-->
 <g class="layer">
  <title>Layer 1</title>
  <ellipse cx="231.5" cy="114.5" fill="#ff0000" id="svg_5" rx="152" ry="70" stroke="#000000" stroke-dasharray="null" stroke-linecap="null" stroke-linejoin="null" stroke-width="5"/>
  <polygon cx="224.5" cy="85.5" fill="none" id="svg_19" orient="point" point="5" points="224.5,85.5 224.5,85.5 224.5,85.5 224.5,85.5 224.5,85.5 224.5,85.5 224.5,85.5 224.5,85.5 224.5,85.5 224.5,85.5 224.5,85.5 224.5,85.5 " r="0" r2="0" shape="star" stroke="#000000" stroke-width="5" strokeWidth="5" strokecolor="#000000"/>
  <polygon cx="232.5" cy="93.5" fill="none" id="svg_20" orient="point" point="5" points="233.5,162.76510620117188 234.84835815429688,166.6441650390625 238.95419311523438,166.72781372070312 235.6816864013672,169.2088623046875 236.87088012695312,173.13961791992188 233.5,170.7939453125 230.12911987304688,173.13961791992188 231.3183135986328,169.2088623046875 228.04580688476562,166.72781372070312 232.15164184570312,166.6441650390625 233.5,162.76510620117188 234.84835815429688,166.6441650390625 " r="5.734884" r2="2.293953" shape="star" stroke="#000000" stroke-width="5" strokeWidth="5" strokecolor="#000000"/>
  <polygon cx="150.5" cy="230.5" fill="#0000ff" id="svg_23" orient="point" point="5" points="152.5,84.30509948730469 157.01300048828125,97.28839111328125 170.7554473876953,97.56845092773438 159.8021697998047,105.87261962890625 163.78248596191406,119.02900695800781 152.5,111.17796325683594 141.21751403808594,119.02900695800781 145.1978302001953,105.87261962890625 134.2445526123047,97.56845092773438 147.98699951171875,97.28839111328125 152.5,84.30509948730469 157.01300048828125,97.28839111328125 " r="19.194907" r2="7.677963" shape="star" stroke="#000000" stroke-width="5" strokeWidth="5" strokecolor="#000000"/>
  <polygon cx="150.5" cy="230.5" fill="#0000ff" id="svg_24" orient="point" point="5" points="328.5,82.13803100585938 333.01300048828125,95.121337890625 346.75543212890625,95.40139770507812 335.80218505859375,103.70556640625 339.782470703125,116.8619384765625 328.5,109.01092529296875 317.217529296875,116.8619384765625 321.19781494140625,103.70556640625 310.2445526123047,95.40139770507812 323.98699951171875,95.121337890625 328.5,82.13803100585938 333.01300048828125,95.121337890625 " r="19.194907" r2="7.677963" shape="star" stroke="#000000" stroke-width="5" strokeWidth="5" strokecolor="#000000"/>
  <text fill="#000000" font-family="Serif" font-size="24" id="svg_25" stroke="#000000" stroke-dasharray="null" stroke-linecap="null" stroke-linejoin="null" stroke-width="0" text-anchor="middle" x="232.5" xml:space="preserve" y="151.5">GARICH</text>
  <path d="m246.440814,72.496845l-24.168924,15.325232l23.87014,5.264944l-22.062963,16.452956l-8.907707,-2.778331l6.317925,15.85884l25.108045,-6.919116l-10.60102,-2.892157l28.786428,-23.631764l-26.314045,-4.283095l25.410467,-15.969133l-14.494613,-2.397682l15.786806,-10.149219l-5.799402,-0.145859l-24.497997,13.923638l11.566859,2.340751l0.000002,-0.000004z" fill="#ffff00" id="svg_27" stroke="#000000" stroke-dasharray="null" stroke-linecap="null" stroke-linejoin="null" stroke-width="5"/>
 </g>
</svg>